<svg xmlns="http://www.w3.org/2000/svg" viewBox="0 0 65.202 53.167">
  <defs>
    <style>
      .cls-1 {
        fill: #5643fa;
      }
    </style>
  </defs>
  <g id="favicon" transform="translate(-4397 -1698)">
    <path id="Path_239" data-name="Path 239" class="cls-1" d="M32,5.91-.6,20.037,15,26.276-.6,33.037,15,39.276-.6,46.037,32,59.077l32.6-13.04L49,39.277l15.6-6.24L49,26.277l15.6-6.24ZM59.4,45.963,32,56.923,4.6,45.963l13.015-5.64L32,46.077l14.384-5.753Zm0-13L46.415,38.157l-.018-.008-.008.018L32,43.923,17.61,38.167l-.008-.019-.019.008L4.6,32.963l13.015-5.64L32,33.077l14.384-5.753Zm-13-7.814-.008.018L32,30.923,17.61,25.167l-.008-.019-.019.008L4.6,19.963,32,8.09,59.4,19.963,46.415,25.157Z" transform="translate(4397.601 1692.09)"/>
  </g>
</svg>
